<svg id="Capa_1" enable-background="new 0 0 512 512" height="512" viewBox="0 0 512 512" width="512" xmlns="http://www.w3.org/2000/svg"><g><path d="m256 307.637 256-137.528-256-137.526-256 137.526 112.16 60.255 145.375-78.098 14.187 26.409-127.889 68.704z"/><path d="m122.121 385.806c-11.959 0-21.689 9.73-21.689 21.688s9.729 21.688 21.689 21.688c11.958 0 21.688-9.729 21.688-21.688s-9.729-21.688-21.688-21.688z"/><path d="m107.132 358.052v-96.359l-56.929-30.583v137.749l26.413 14.19c6.417-11.898 17.364-21.002 30.516-24.997z"/><path d="m256 341.668-118.889-63.87v80.254c21.201 6.44 36.677 26.165 36.677 49.442 0 8.839-2.234 17.164-6.162 24.446l88.374 47.477 205.797-110.558v-137.749z"/></g></svg>