<svg id="Capa_1" enable-background="new 0 0 512 512" height="512" viewBox="0 0 512 512" width="512" xmlns="http://www.w3.org/2000/svg"><g><path d="m173.531 443.67h-173.531c6.469 21.645 26.563 37.469 50.284 37.469h123.247z"/><path d="m338.469 443.67v37.469h123.247c23.721 0 43.815-15.824 50.284-37.469z"/><path d="m203.531 443.67h104.938v37.469h-104.938z"/><path d="m51.727 173.795v239.875h408.547v-239.875h-37.469v33.324h-50.563c-6.105 0-12.464 3.923-15.821 9.761-3.268 5.63-3.291 12.268-.093 17.807l25.228 43.697-84.067 49.327-25.335-43.881c-3.048-5.279-9.61-8.822-16.336-8.822-.022-.001-.048 0-.072 0-6.49 0-12.232 3.296-15.424 8.824l-25.229 43.696-84.752-48.142 25.334-43.881c3.053-5.288 2.835-12.756-.543-18.583-3.241-5.645-8.978-8.983-15.374-8.983h-50.563v-34.145h-37.468z"/><path d="m119.195 140.471v37.469h20.562c17.271 0 32.731 8.969 41.359 23.991 8.688 14.989 8.91 34.076.538 48.576l-10.229 17.716 32.58 18.507 10.334-17.897c8.615-14.924 24.066-23.824 41.344-23.824h.188c17.301 0 33.903 9.344 42.262 23.823l10.229 17.716 32.317-18.962-10.333-17.898c-8.636-14.956-8.6-32.831.097-47.814 8.637-15.017 25.055-24.753 41.798-24.753h20.563v-37.47l-21.035.001c-17.271 0-32.732-8.97-41.36-23.993-8.686-14.986-8.909-34.073-.539-48.573l10.23-17.719-32.58-18.506-10.333 17.897c-8.615 14.924-24.064 23.823-41.342 23.823-.067-.001-.133-.001-.196 0-17.294 0-33.896-9.344-42.256-23.82l-10.229-17.719-32.317 18.963 10.333 17.897c8.636 14.958 8.6 32.833-.098 47.815-8.636 15.017-25.054 24.753-41.798 24.753h-20.089zm136.568-30.41c26.872 0 48.734 21.862 48.734 48.734s-21.862 48.734-48.734 48.734-48.734-21.862-48.734-48.734 21.862-48.734 48.734-48.734z"/><circle cx="255.763" cy="158.795" r="18.734"/></g></svg>