<svg xmlns="http://www.w3.org/2000/svg" version="1.1" xmlns:xlink="http://www.w3.org/1999/xlink" xmlns:svgjs="http://svgjs.com/svgjs" width="512" height="512" x="0" y="0" viewBox="0 0 64 64" style="enable-background:new 0 0 512 512" xml:space="preserve" class=""><g transform="matrix(1.4499999999999997,0,0,1.4499999999999997,-14.399999999999991,-14.404500102996828)"><path d="M46.77 22.29a1 1 0 0 0-1-.87h-5.51v-2a8.26 8.26 0 0 0-16.52 0v2h-5.52a1 1 0 0 0-1 .87l-3.71 28.14a1 1 0 0 0 .26.81c.42.45.88.91 1.38 1.36a1 1 0 0 0 .67.26h32.36a1 1 0 0 0 .67-.26c.49-.45 1-.91 1.38-1.36a1 1 0 0 0 .26-.81zm-21-2.89a6.26 6.26 0 0 1 12.52 0v2H25.74zm22 31.46H16.21l-.66-.64 3.54-26.8H44.9l3.54 26.8z" fill="#000000" data-original="#000000"></path></g></svg>