<svg width="1524" height="360" viewBox="0 0 1524 360" fill="none" xmlns="http://www.w3.org/2000/svg">
<rect width="360" height="360" fill="#000066"/>
<path d="M185.82 259.6C161.66 259.6 141.82 251.28 126.3 234.64C110.94 217.84 103.26 196.56 103.26 170.8C103.26 144.88 110.78 123.44 125.82 106.48C140.86 89.52 160.78 81.04 185.58 81.04C206.06 81.04 222.46 86.48 234.78 97.36C247.26 108.08 254.46 121.92 256.38 138.88H221.82C220.22 130.08 216.22 123.12 209.82 118C203.58 112.88 195.5 110.32 185.58 110.32C170.38 110.32 158.78 115.92 150.78 127.12C142.78 138.32 138.78 152.88 138.78 170.8C138.78 188.56 143.02 203.04 151.5 214.24C160.14 225.44 171.58 231.04 185.82 231.04C195.9 231.04 204.3 228.32 211.02 222.88C217.74 217.28 221.66 209.92 222.78 200.8H256.86C255.9 216.96 249.58 230.48 237.9 241.36C224.94 253.52 207.58 259.6 185.82 259.6Z" fill="white"/>
<rect width="360" height="360" transform="translate(388)" fill="#009900"/>
<path d="M502.2 256V84.4H579C597.4 84.4 611.24 88.56 620.52 96.88C629.64 105.04 634.2 115.76 634.2 129.04C634.2 145.84 625.24 157.28 607.32 163.36V164.08C616.92 166.96 624.6 172.16 630.36 179.68C636.28 187.2 639.24 196.16 639.24 206.56C639.24 221.76 634.2 233.68 624.12 242.32C613.72 251.44 599.32 256 580.92 256H502.2ZM537 179.2V227.2H577.08C585.4 227.2 591.96 225.12 596.76 220.96C601.56 216.64 603.96 210.96 603.96 203.92C603.96 196.08 601.32 190 596.04 185.68C590.92 181.36 584.28 179.2 576.12 179.2H537ZM537 153.52H574.68C582.36 153.52 588.52 151.76 593.16 148.24C597.8 144.56 600.12 139.44 600.12 132.88C600.12 126.48 597.88 121.52 593.4 118C589.08 114.48 583.08 112.72 575.4 112.72H537V153.52Z" fill="white"/>
<rect width="360" height="360" transform="translate(776)" fill="#000066"/>
<path d="M958.68 259.84C935.48 259.84 917.48 254.96 904.68 245.2C891.88 235.28 885.16 221.2 884.52 202.96H918.6C919.72 213.2 923.32 220.56 929.4 225.04C935.64 229.52 944.92 231.76 957.24 231.76C967 231.76 975 230 981.24 226.48C987.48 222.8 990.6 217.2 990.6 209.68C990.6 206.96 990.2 204.56 989.4 202.48C988.76 200.24 987.32 198.32 985.08 196.72C982.84 194.96 980.92 193.6 979.32 192.64C977.72 191.52 974.76 190.4 970.44 189.28C966.12 188 962.84 187.12 960.6 186.64C958.36 186 954.2 184.96 948.12 183.52C940.76 181.76 934.68 180.24 929.88 178.96C925.24 177.68 920.04 175.68 914.28 172.96C908.68 170.24 904.2 167.28 900.84 164.08C897.64 160.72 894.92 156.4 892.68 151.12C890.44 145.68 889.32 139.52 889.32 132.64C889.32 116.16 895.32 103.52 907.32 94.72C919.48 85.76 935.4 81.28 955.08 81.28C974.6 81.28 990.2 85.92 1001.88 95.2C1013.56 104.48 1020.04 117.68 1021.32 134.8H987.96C987 126.48 983.48 120.08 977.4 115.6C971.48 111.12 963.96 108.88 954.84 108.88C945.4 108.88 937.88 110.72 932.28 114.4C926.68 118.08 923.88 122.96 923.88 129.04C923.88 135.6 926.6 140.4 932.04 143.44C937.64 146.48 947.4 149.52 961.32 152.56C969.64 154.32 976.44 156 981.72 157.6C987 159.04 992.68 161.2 998.76 164.08C1005 166.8 1009.8 169.84 1013.16 173.2C1016.68 176.56 1019.56 181.04 1021.8 186.64C1024.2 192.08 1025.4 198.4 1025.4 205.6C1025.4 222.56 1019.24 235.84 1006.92 245.44C994.6 255.04 978.52 259.84 958.68 259.84Z" fill="white"/>
<rect width="360" height="360" transform="translate(1164)" fill="#000066"/>
<path d="M1394.46 256L1393.26 232.96H1392.78C1382.22 250.72 1366.14 259.6 1344.54 259.6C1319.42 259.6 1299.34 251.28 1284.3 234.64C1269.42 218 1261.98 196.72 1261.98 170.8C1261.98 141.36 1271.34 118 1290.06 100.72C1304.46 87.6 1322.86 81.04 1345.26 81.04C1366.22 81.04 1382.94 86.24 1395.42 96.64C1408.06 107.04 1415.82 120.96 1418.7 138.4H1384.62C1382.54 129.76 1378.22 122.88 1371.66 117.76C1365.1 112.48 1356.54 109.84 1345.98 109.84C1330.46 109.84 1318.46 115.52 1309.98 126.88C1301.66 138.24 1297.5 152.88 1297.5 170.8C1297.5 188.56 1301.82 203.12 1310.46 214.48C1319.26 225.84 1330.94 231.52 1345.5 231.52C1358.3 231.52 1368.86 227.6 1377.18 219.76C1385.5 211.76 1389.66 202.72 1389.66 192.64V191.68H1348.38V164.8H1420.62V256H1394.46Z" fill="white"/>
</svg>
